# xmcd
# 
# Track frame offsets:
#     195
#     13793
#     23683
#     36900
#     49190
#     64845
#     77618
#     90853
#     101053
#     115910
#     130680
#     143068
#     156228
#     167358
# 
# Disc length: 2411
# 
# Revision: 6
# Processed by: cddbd v1.5.2PL0 Copyright (c) Steve Scherf et al.
# Submitted via: fre:ac v1.0.31
# 
DISCID=a709690e
DTITLE=Tom Astor - Irgendwo am Horizont
DYEAR=1992
DGENRE=Country
TTITLE0=Irgendwo am Horizont
TTITLE1=Danke Brummi
TTITLE2=Der Truck, das Ist sein Leben
TTITLE3=Dieser Hintern hat das Zeug zum Weltstar
TTITLE4=Ich hau' den Lukas
TTITLE5=Bleifuß Joe
TTITLE6=Truck Drivin' Girl
TTITLE7=Übermütung Tötet
TTITLE8=Truckers Glück
TTITLE9=Und Nachts wenn alles schlief
TTITLE10=Zwischen Mitternacht und Morgen
TTITLE11=Ich bin einer, so wie Du
TTITLE12=Ist das ein Leben! - So Hart und so schön
TTITLE13=Tausend Träume auf Asphalt
EXTD=
EXTT0=
EXTT1=
EXTT2=
EXTT3=
EXTT4=
EXTT5=
EXTT6=
EXTT7=
EXTT8=
EXTT9=
EXTT10=
EXTT11=
EXTT12=
EXTT13=
PLAYORDER=
